<svg xmlns="http://www.w3.org/2000/svg" viewBox="0 0 360 96" role="img" aria-label="체크온 CheckOn">
  <rect x="8" y="16" width="64" height="64" rx="14" fill="#0A84FF"/>
  <g transform="translate(8 16) scale(0.125)">
    <path d="M256 88 C170 88 138 158 138 244 V328 L100 384 H412 L374 328 V244 C374 158 342 88 256 88 Z" fill="#fff"/>
    <path d="M204 244 L242 282 L314 198" fill="none" stroke="#0A84FF" stroke-width="42" stroke-linecap="round" stroke-linejoin="round"/>
    <circle cx="256" cy="428" r="26" fill="#fff"/>
  </g>
  <!-- 체크온 wordmark: Bagel Fat One outlines (concept 08 typography) -->
  <g fill="#1C1C1E"><path transform="translate(92.0 62) scale(0.044000 -0.044000)" d="M664 716Q664 756 686.5 776.5Q709 797 743 797Q778 797 801.0 776.5Q824 756 824 716V16Q824 -24 801.0 -45.0Q778 -66 743 -66Q709 -66 686.5 -45.0Q664 -24 664 16ZM116 497Q73 497 48.0 519.0Q23 541 23 590Q23 639 48.0 661.0Q73 683 116 683H138V704Q138 745 161.5 767.0Q185 789 229 789Q273 789 296.5 766.5Q320 744 320 702V683H347Q391 683 416.0 661.0Q441 639 441 590Q441 542 416.0 519.5Q391 497 347 497H295Q288 460 281.5 437.5Q275 415 275 415Q326 409 363 376Q359 387 359 402Q359 445 381.0 469.5Q403 494 436 494Q450 494 462.5 492.0Q475 490 485 488V705Q485 741 507.0 761.5Q529 782 561 782Q593 782 615.5 761.5Q638 741 638 705V30Q638 -7 615.5 -27.5Q593 -48 561 -48Q529 -48 507.0 -27.5Q485 -7 485 30V325Q475 321 462.5 318.5Q450 316 436 316Q423 316 408 321Q423 295 432.0 264.0Q441 233 442 200Q444 139 420.5 103.5Q397 68 353 68Q310 68 286.0 99.0Q262 130 262 178Q262 225 271.5 263.0Q281 301 288 335Q290 346 287.5 354.5Q285 363 275 365Q267 368 259.5 363.0Q252 358 250 347Q240 307 230.5 274.0Q221 241 211.0 209.5Q201 178 186 140Q169 100 140.0 86.5Q111 73 77 86Q37 100 24.0 133.5Q11 167 24 213Q36 256 54.5 299.5Q73 343 86 381Q99 413 108.5 441.5Q118 470 126 497Z"/><path transform="translate(130.3 62) scale(0.044000 -0.044000)" d="M87 638Q87 677 112.0 704.5Q137 732 189 732H594Q668 732 708.5 696.0Q749 660 755 600Q758 569 758.5 526.0Q759 483 756.0 435.0Q753 387 744 341Q734 281 699.5 249.0Q665 217 609 231Q573 241 556.0 264.0Q539 287 540.0 315.0Q541 343 557 365H195Q158 365 140.0 384.0Q122 403 122 433Q122 463 139.5 481.5Q157 500 194 500H662Q662 530 647.0 536.5Q632 543 606 543H189Q136 543 111.5 572.0Q87 601 87 638ZM119 3Q81 3 52.0 30.0Q23 57 23 104Q23 149 52.0 176.0Q81 203 121 203H750Q790 203 816.0 175.0Q842 147 842 104Q842 60 816.0 31.5Q790 3 750 3Z"/><path transform="translate(168.6 62) scale(0.044000 -0.044000)" d="M301 -67Q214 -67 164.0 -28.0Q114 11 114 81Q114 117 125.5 140.0Q137 163 148.5 173.5Q160 184 160 184L154 197H113Q76 197 49.5 221.5Q23 246 23 290Q23 333 50.0 356.0Q77 379 115 379H369V411Q302 413 249.0 421.5Q196 430 163.5 452.5Q131 475 122 517Q113 563 128.5 591.5Q144 620 172.0 633.5Q200 647 227 647V649Q201 656 186.5 674.0Q172 692 176 723Q178 742 187.0 756.5Q196 771 220.5 781.5Q245 792 293.5 797.5Q342 803 422 803Q587 803 667.5 752.0Q748 701 748 597Q748 529 719.5 489.5Q691 450 631.0 432.5Q571 415 477 411Q479 379 514 379H752Q791 379 816.5 355.0Q842 331 842 290Q842 248 816.5 222.5Q791 197 752 197H246Q234 197 225.0 192.0Q216 187 223 175Q234 156 249.5 146.0Q265 136 296 136H645Q705 136 731.0 108.0Q757 80 757 36Q757 -7 731.0 -37.0Q705 -67 645 -67ZM278 619Q278 610 287.5 604.5Q297 599 328.5 597.0Q360 595 426 595Q482 595 511.0 597.5Q540 600 550.5 605.5Q561 611 561 619Q561 628 550.5 633.0Q540 638 511.0 640.5Q482 643 426 643Q360 643 328.5 640.5Q297 638 287.5 633.0Q278 628 278 619Z"/></g>
  <circle cx="221" cy="33" r="6" fill="#30D158"/>
  <g fill="#8E8E93"><path transform="translate(93.0 84) scale(0.014000 -0.014000)" d="M376 -2Q278 -2 199.5 38.5Q121 79 76.0 159.0Q31 239 31 356Q31 473 76.5 558.0Q122 643 201.5 688.5Q281 734 383 734Q501 734 564.0 701.0Q627 668 627 603Q627 553 600.0 520.5Q573 488 526 488Q486 488 448.5 498.5Q411 509 361 509Q297 509 260.0 472.0Q223 435 223 375Q223 316 260.0 276.5Q297 237 361 237Q395 237 423.5 242.5Q452 248 479.5 254.0Q507 260 539 260Q592 260 617.0 225.5Q642 191 642 140Q642 89 605.0 57.5Q568 26 507.5 12.0Q447 -2 376 -2Z"/><path transform="translate(104.3 84) scale(0.014000 -0.014000)" d="M122 0Q78 0 52.5 26.5Q27 53 27 92V671Q27 713 52.5 742.0Q78 771 125 771Q171 771 194.5 742.0Q218 713 218 670V371H236Q236 428 256.5 461.0Q277 494 309.5 508.5Q342 523 376 523Q436 523 467.5 493.5Q499 464 510.5 415.0Q522 366 522 308V92Q522 51 495.5 25.5Q469 0 425 0Q380 0 354.0 25.5Q328 51 328 92V269Q328 305 314.0 325.0Q300 345 273 345Q246 345 232.0 323.0Q218 301 218 267V92Q218 53 192.5 26.5Q167 0 122 0Z"/><path transform="translate(113.9 84) scale(0.014000 -0.014000)" d="M23 260Q23 339 54.5 399.0Q86 459 144.5 493.0Q203 527 284 527Q347 527 397.5 504.0Q448 481 477.0 442.5Q506 404 506 358Q506 310 478.0 290.0Q450 270 395 270H185Q185 244 205.5 227.0Q226 210 275 210Q300 210 321.5 215.0Q343 220 365.5 224.5Q388 229 416 229Q456 229 482.0 200.5Q508 172 508 122Q508 63 447.5 30.0Q387 -3 289 -3Q220 -3 159.5 24.0Q99 51 61.0 109.5Q23 168 23 260ZM347 303Q362 303 357 317Q353 331 333.0 346.0Q313 361 275 361Q231 361 209.5 342.0Q188 323 188 303Z"/><path transform="translate(123.3 84) scale(0.014000 -0.014000)" d="M284 -3Q206 -3 146.0 29.5Q86 62 52.0 122.0Q18 182 18 263Q18 344 52.0 404.0Q86 464 146.5 497.0Q207 530 286 530Q348 530 395.5 517.0Q443 504 470.5 478.0Q498 452 498 413Q498 366 474.0 339.5Q450 313 405 313Q375 313 345.5 322.0Q316 331 270 331Q232 331 206.0 319.0Q180 307 180 275Q180 242 206.0 227.5Q232 213 270 213Q301 213 322.0 219.0Q343 225 362.0 231.0Q381 237 405 237Q456 237 480.5 207.5Q505 178 505 132Q505 93 476.0 62.5Q447 32 397.0 14.5Q347 -3 284 -3Z"/><path transform="translate(132.5 84) scale(0.014000 -0.014000)" d="M123 0Q79 0 53.0 26.5Q27 53 27 92V671Q27 713 52.5 742.0Q78 771 125 771Q171 771 194.5 742.0Q218 713 218 670V367L221 366Q226 408 247.0 443.5Q268 479 306.0 501.0Q344 523 399 523Q473 523 518.0 482.0Q563 441 563 370Q563 321 543.5 292.5Q524 264 491.0 253.0Q458 242 418 243V226Q507 226 544.5 190.5Q582 155 582 101Q582 51 552.0 24.0Q522 -3 480 -2Q434 -1 404.0 25.0Q374 51 354 95L311 186Q298 213 277.5 225.0Q257 237 218 234V92Q218 53 192.5 26.5Q167 0 123 0ZM239 302Q239 288 253.5 281.5Q268 275 314 275Q359 275 374.0 281.0Q389 287 389 302Q389 316 374.0 323.0Q359 330 315 330Q268 330 253.5 323.0Q239 316 239 302Z"/><path transform="translate(142.9 84) scale(0.014000 -0.014000)" d="M355 -3Q248 -3 174.0 44.0Q100 91 62.0 174.0Q24 257 24 365Q24 472 62.0 555.5Q100 639 174.0 686.5Q248 734 355 734Q462 734 535.5 686.5Q609 639 647.0 555.5Q685 472 685 365Q685 257 647.0 174.0Q609 91 535.5 44.0Q462 -3 355 -3ZM150 381Q150 350 165.0 322.5Q180 295 224.0 278.5Q268 262 355 262Q442 262 485.5 278.5Q529 295 544.0 322.5Q559 350 559 381Q559 413 544.0 438.5Q529 464 485.5 479.5Q442 495 355 495Q268 495 224.0 479.5Q180 464 165.0 438.5Q150 413 150 381Z"/><path transform="translate(154.8 84) scale(0.014000 -0.014000)" d="M124 0Q80 0 53.5 26.5Q27 53 27 92V423Q27 465 52.0 494.0Q77 523 124 523Q170 523 194.0 494.0Q218 465 218 421V371H236Q236 428 256.5 461.0Q277 494 309.0 508.5Q341 523 373 523Q450 523 486.0 467.5Q522 412 522 310V92Q522 53 496.0 26.5Q470 0 426 0Q381 0 354.5 26.5Q328 53 328 92V269Q328 305 314.5 325.0Q301 345 275 345Q245 345 231.5 323.0Q218 301 218 267V92Q218 53 193.0 26.5Q168 0 124 0Z"/></g>
</svg>
